<svg xmlns="http://www.w3.org/2000/svg" width="19" height="20" viewBox="0 0 19 20" fill="none"><path fill-rule="evenodd" clip-rule="evenodd" d="M9.17038 12.6696C7.4938 12.666 6.13705 11.3028 6.14155 9.62595C6.14509 7.94873 7.5073 6.59423 9.18516 6.59712C10.8617 6.6013 12.2182 7.96448 12.214 9.6417C12.2095 11.3186 10.8473 12.6741 9.17038 12.6696ZM9.18973 4.66458C6.44987 4.65815 4.21593 6.88212 4.20822 9.62198C4.20179 12.3615 6.42576 14.5967 9.16594 14.6028C11.9055 14.6096 14.1397 12.3856 14.1462 9.64513C14.1532 6.90623 11.9299 4.67165 9.18973 4.66458Z" fill="white"></path><mask id="mask0_25_6342" style="mask-type:luminance" maskUnits="userSpaceOnUse" x="0" y="0" width="19" height="20"><path fill-rule="evenodd" clip-rule="evenodd" d="M0 0H19V19.2137H0V0Z" fill="white"></path></mask><g mask="url(#mask0_25_6342)"><path fill-rule="evenodd" clip-rule="evenodd" d="M14.4994 6.08455C15.087 6.08648 15.5656 5.61076 15.5659 5.02255C15.5678 4.43498 15.0924 3.95733 14.5042 3.95508C13.9163 3.95348 13.439 4.42919 13.4371 5.01805C13.4348 5.60562 13.9105 6.08294 14.4994 6.08455Z" fill="white"></path><path fill-rule="evenodd" clip-rule="evenodd" d="M1.9286 5.71435C1.9347 3.6212 3.61481 1.92792 5.68353 1.93434L13.3538 1.95267C15.4222 1.95749 17.0946 3.65913 17.0898 5.75228L17.0714 13.5183C17.066 15.6131 15.3865 17.3057 13.3172 17.3009L5.64592 17.2826C3.57785 17.2768 1.90513 15.5761 1.90995 13.4817L1.9286 5.71435ZM5.64108 19.2147L13.3126 19.2331C16.4305 19.2417 18.973 16.6796 18.9817 13.5232L19 5.75747C19.0074 2.602 16.4765 0.0270312 13.3592 0.0199598L5.68672 3.11999e-05C2.5695 -0.00704024 0.0269956 2.55443 0.0192813 5.71022L-4.40528e-06 13.4772C-0.00643299 16.6337 2.52386 19.2073 5.64108 19.2147Z" fill="white"></path></g></svg>