<svg xmlns="http://www.w3.org/2000/svg" width="55" height="55" viewBox="0 0 55 55" fill="none"><rect opacity="0.1" width="55" height="55" rx="10" fill="white"></rect><path d="M35.2917 15.6262C34.0538 16.8641 31.745 16.7462 29.75 14.7512L28 16.5001L37.3333 25.8334L41.4167 21.7501L35.2917 15.6262Z" stroke="#C4D9F9" stroke-linecap="round" stroke-linejoin="round"></path><path d="M27.9287 24.5967L23.5036 20.1727C23.8942 19.3087 24.0124 18.3461 23.8423 17.4131C23.6722 16.4802 23.2219 15.6213 22.5515 14.9506C21.881 14.28 21.0221 13.8296 20.0892 13.6593C19.1563 13.4891 18.1937 13.6071 17.3296 13.9976L19.8332 16.5001V18.8334H17.4999L14.9962 16.3309C14.6055 17.195 14.4874 18.1576 14.6575 19.0905C14.8276 20.0234 15.2778 20.8824 15.9483 21.553C16.6188 22.2236 17.4777 22.674 18.4106 22.8443C19.3434 23.0146 20.3061 22.8966 21.1702 22.5061L25.5954 26.9301" stroke="#C4D9F9" stroke-linecap="round" stroke-linejoin="round"></path><path d="M28.071 29.4055L32.4962 33.8307C32.1055 34.6948 31.9874 35.6574 32.1575 36.5903C32.3276 37.5232 32.7778 38.3822 33.4483 39.0528C34.1188 39.7234 34.9777 40.1738 35.9106 40.3441C36.8434 40.5144 37.8061 40.3964 38.6702 40.0059L36.1665 37.4999V35.1665H38.4999L41.0035 37.6714C41.3942 36.8073 41.5124 35.8447 41.3423 34.9118C41.1722 33.9789 40.7219 33.1199 40.0515 32.4493C39.381 31.7787 38.5221 31.3282 37.5892 31.158C36.6563 30.9877 35.6937 31.1057 34.8295 31.4962L30.4044 27.071" stroke="#C4D9F9" stroke-linecap="round" stroke-linejoin="round"></path><path d="M32.0122 20.5134L15.0955 37.4301C14.7672 37.7584 14.5828 38.2036 14.5828 38.6679C14.5828 39.1322 14.7672 39.5775 15.0955 39.9058C15.4238 40.2341 15.869 40.4185 16.3333 40.4185C16.7976 40.4185 17.2429 40.2341 17.5712 39.9058L34.4878 22.9891" stroke="#C4D9F9" stroke-linecap="round" stroke-linejoin="round"></path></svg>