<svg xmlns="http://www.w3.org/2000/svg" width="55" height="55" viewBox="0 0 55 55" fill="none"><rect opacity="0.1" width="55" height="55" rx="10" fill="white"></rect><g clip-path="url(#clip0_19_5200)"><path d="M23 21H17.8893C17.5973 21 17.3082 21.0575 17.0384 21.1693C16.7687 21.2811 16.5236 21.4449 16.3172 21.6515C16.1107 21.858 15.9471 22.1032 15.8354 22.373C15.7238 22.6428 15.6665 22.932 15.6666 23.224V38.3333" stroke="#C4D9F9" stroke-linecap="round" stroke-linejoin="round"></path><path d="M38.3334 38.3346V29.668" stroke="#C4D9F9" stroke-linecap="round" stroke-linejoin="round"></path><path d="M42.3333 38.3333C42.3333 39.3941 41.9119 40.4115 41.1617 41.1617C40.4116 41.9118 39.3942 42.3333 38.3333 42.3333H15.6666C14.6058 42.3333 13.5883 41.9118 12.8382 41.1617C12.0881 40.4115 11.6666 39.3941 11.6666 38.3333H42.3333Z" stroke="#C4D9F9" stroke-linecap="round" stroke-linejoin="round"></path><path d="M34.244 11.6667C33.191 11.6703 32.1493 11.8832 31.1794 12.2932C30.2096 12.7032 29.331 13.3021 28.5948 14.0549C27.8586 14.8077 27.2795 15.6995 26.8912 16.6783C26.503 17.6571 26.3133 18.7033 26.3333 19.7561C26.2733 21.2449 26.6343 22.7204 27.3747 24.0134L25 29.0001L29.988 26.6241C31.0513 27.2833 32.2531 27.6867 33.4988 27.8026C34.7445 27.9186 36 27.7438 37.1667 27.2922C38.3334 26.8406 39.3794 26.1244 40.2224 25.2C41.0654 24.2756 41.6823 23.1682 42.0247 21.9649C42.3671 20.7616 42.4256 19.4952 42.1956 18.2655C41.9655 17.0358 41.4533 15.8762 40.6991 14.878C39.9449 13.8798 38.9694 13.0703 37.8493 12.513C36.7292 11.9558 35.4951 11.6661 34.244 11.6667Z" stroke="#C4D9F9" stroke-linecap="round" stroke-linejoin="round"></path><path d="M34.3334 20.3347V16.3347" stroke="#C4D9F9" stroke-linecap="round" stroke-linejoin="round"></path><path d="M34.3333 22.9999C34.2449 22.9999 34.1601 22.9648 34.0976 22.9023C34.0351 22.8398 34 22.755 34 22.6666C34 22.5782 34.0351 22.4934 34.0976 22.4309C34.1601 22.3684 34.2449 22.3333 34.3333 22.3333" stroke="#C4D9F9"></path><path d="M34.3334 22.9999C34.4218 22.9999 34.5066 22.9648 34.5691 22.9023C34.6316 22.8398 34.6667 22.755 34.6667 22.6666C34.6667 22.5782 34.6316 22.4934 34.5691 22.4309C34.5066 22.3684 34.4218 22.3333 34.3334 22.3333" stroke="#C4D9F9"></path></g><defs><clipPath id="clip0_19_5200"><rect width="32" height="32" fill="white" transform="translate(11 11)"></rect></clipPath></defs></svg>