<svg xmlns="http://www.w3.org/2000/svg" width="55" height="55" viewBox="0 0 55 55" fill="none"><rect opacity="0.1" width="55" height="55" rx="10" fill="white"></rect><path d="M17.9133 14.2174L29.8279 18.9814C30.0753 19.0802 30.2875 19.2509 30.4369 19.4714C30.5864 19.692 30.6664 19.9523 30.6666 20.2187V42.6827C30.6662 42.9003 30.6126 43.1146 30.5104 43.3068C30.4081 43.4989 30.2604 43.6631 30.0801 43.7851C29.8998 43.907 29.6924 43.9829 29.4759 44.0062C29.2595 44.0295 29.0407 43.9994 28.8386 43.9187L18.1719 39.652C17.9247 39.5533 17.7127 39.3828 17.5633 39.1625C17.4138 38.9422 17.3337 38.6822 17.3333 38.416V15.3187C17.3333 14.9651 17.4737 14.6259 17.7238 14.3759C17.9738 14.1258 18.313 13.9854 18.6666 13.9854H37.3333C37.6869 13.9854 38.026 14.1258 38.2761 14.3759C38.5261 14.6259 38.6666 14.9651 38.6666 15.3187V37.9854C38.6666 38.339 38.5261 38.6781 38.2761 38.9282C38.026 39.1782 37.6869 39.3187 37.3333 39.3187H34.6666" stroke="#C4D9F9" stroke-linecap="round" stroke-linejoin="round"></path><path d="M18.0693 14.1267L33.584 17.1094C33.8886 17.1677 34.1633 17.3303 34.3609 17.5693C34.5585 17.8082 34.6666 18.1086 34.6667 18.4187V40.652C34.6667 41.0057 34.5262 41.3448 34.2761 41.5949C34.0261 41.8449 33.687 41.9854 33.3333 41.9854H30.6667" stroke="#C4D9F9" stroke-linecap="round" stroke-linejoin="round"></path></svg>