<svg xmlns="http://www.w3.org/2000/svg" width="55" height="55" viewBox="0 0 55 55" fill="none"><rect opacity="0.1" width="55" height="55" rx="10" fill="white"></rect><path d="M43.3333 28.9612C43.3333 27.7442 43.0936 26.5391 42.6278 25.4147C42.1621 24.2904 41.4794 23.2688 40.6187 22.4083C39.7581 21.5477 38.7364 20.8652 37.612 20.3996C36.4875 19.934 35.2824 19.6944 34.0653 19.6946H30.3693C27.9389 19.7358 25.6219 20.7302 23.9177 22.4636C22.2135 24.1969 21.2585 26.5304 21.2585 28.9612C21.2585 31.392 22.2135 33.7255 23.9177 35.4589C25.6219 37.1922 27.9389 38.1867 30.3693 38.2279H31.808L38.0373 42.3999V37.3039C39.6189 36.5567 40.956 35.3762 41.8934 33.8995C42.8309 32.4228 43.3302 30.7104 43.3333 28.9612Z" stroke="#C4D9F9" stroke-linecap="round" stroke-linejoin="round"></path><path d="M21.5494 26.1201L16.1747 30.2374V25.2628C14.9164 24.6677 13.8983 23.6618 13.2881 22.4108C12.6779 21.1597 12.512 19.7382 12.8176 18.3802C13.1233 17.0223 13.8824 15.809 14.9698 14.9401C16.0572 14.0712 17.4081 13.5986 18.8001 13.6001H22.3067C23.2257 13.6203 24.1296 13.8372 24.9576 14.2362C25.7856 14.6353 26.5184 15.2072 27.1067 15.9134C28.0564 17.0155 28.5302 18.4492 28.4241 19.9001" stroke="#C4D9F9" stroke-linecap="round" stroke-linejoin="round"></path><path d="M30.2386 26.0879C30.2384 25.6622 30.3644 25.246 30.6007 24.892C30.837 24.5379 31.173 24.2618 31.5662 24.0988C31.9594 23.9357 32.3921 23.8929 32.8097 23.9758C33.2272 24.0586 33.6108 24.2635 33.9119 24.5644C34.213 24.8653 34.4181 25.2488 34.5012 25.6662C34.5843 26.0837 34.5418 26.5165 34.379 26.9098C34.2161 27.3031 33.9403 27.6393 33.5864 27.8758C33.2325 28.1123 32.8163 28.2386 32.3906 28.2386V29.7052" stroke="#C4D9F9" stroke-linecap="round" stroke-linejoin="round"></path><path d="M32.1774 33.5413C32.0448 33.5413 31.9176 33.4886 31.8238 33.3948C31.73 33.301 31.6774 33.1739 31.6774 33.0413C31.6774 32.9087 31.73 32.7815 31.8238 32.6877C31.9176 32.5939 32.0448 32.5413 32.1774 32.5413" stroke="#C4D9F9"></path><path d="M32.1774 33.5413C32.31 33.5413 32.4372 33.4886 32.5309 33.3948C32.6247 33.301 32.6774 33.1739 32.6774 33.0413C32.6774 32.9087 32.6247 32.7815 32.5309 32.6877C32.4372 32.5939 32.31 32.5413 32.1774 32.5413" stroke="#C4D9F9"></path><path d="M16.7494 19.6721C16.6168 19.6721 16.4896 19.6194 16.3958 19.5257C16.3021 19.4319 16.2494 19.3047 16.2494 19.1721C16.2494 19.0395 16.3021 18.9123 16.3958 18.8186C16.4896 18.7248 16.6168 18.6721 16.7494 18.6721" stroke="#C4D9F9"></path><path d="M16.7494 19.6721C16.882 19.6721 17.0092 19.6194 17.1029 19.5257C17.1967 19.4319 17.2494 19.3047 17.2494 19.1721C17.2494 19.0395 17.1967 18.9123 17.1029 18.8186C17.0092 18.7248 16.882 18.6721 16.7494 18.6721" stroke="#C4D9F9"></path><path d="M20.0533 19.6721C19.9207 19.6721 19.7936 19.6194 19.6998 19.5257C19.606 19.4319 19.5533 19.3047 19.5533 19.1721C19.5533 19.0395 19.606 18.9123 19.6998 18.8186C19.7936 18.7248 19.9207 18.6721 20.0533 18.6721" stroke="#C4D9F9"></path><path d="M20.0533 19.6721C20.186 19.6721 20.3131 19.6194 20.4069 19.5257C20.5007 19.4319 20.5533 19.3047 20.5533 19.1721C20.5533 19.0395 20.5007 18.9123 20.4069 18.8186C20.3131 18.7248 20.186 18.6721 20.0533 18.6721" stroke="#C4D9F9"></path><path d="M23.3467 19.6721C23.2141 19.6721 23.0869 19.6194 22.9931 19.5257C22.8994 19.4319 22.8467 19.3047 22.8467 19.1721C22.8467 19.0395 22.8994 18.9123 22.9931 18.8186C23.0869 18.7248 23.2141 18.6721 23.3467 18.6721" stroke="#C4D9F9"></path><path d="M23.3467 19.6721C23.4793 19.6721 23.6065 19.6194 23.7002 19.5257C23.794 19.4319 23.8467 19.3047 23.8467 19.1721C23.8467 19.0395 23.794 18.9123 23.7002 18.8186C23.6065 18.7248 23.4793 18.6721 23.3467 18.6721" stroke="#C4D9F9"></path></svg>