<svg xmlns="http://www.w3.org/2000/svg" width="24" height="24" viewBox="0 0 24 24" fill="none"><path d="M14.5427 5.56125C14.7594 6.47975 15.5842 7.16398 16.5691 7.16398C17.7189 7.16398 18.6511 6.23182 18.6511 5.08199C18.6511 3.93216 17.7189 3 16.5691 3C15.5637 3 14.7252 3.71254 14.53 4.66032C12.8463 4.8409 11.5315 6.26891 11.5315 7.99951C11.5315 8.00342 11.5315 8.00634 11.5315 8.01025C9.70034 8.08736 8.02831 8.60859 6.70083 9.43143C6.20791 9.04978 5.58907 8.82235 4.91752 8.82235C3.306 8.82235 2 10.1284 2 11.7399C2 12.9092 2.68716 13.9165 3.67984 14.3821C3.77648 17.7692 7.46706 20.4934 12.0068 20.4934C16.5466 20.4934 20.2421 17.7662 20.3338 14.3763C21.3187 13.9078 22 12.9034 22 11.7408C22 10.1293 20.694 8.82333 19.0825 8.82333C18.4139 8.82333 17.798 9.0488 17.306 9.42753C15.9668 8.59883 14.2762 8.0776 12.4265 8.0083C12.4265 8.00537 12.4265 8.00342 12.4265 8.00049C12.4265 6.76086 13.348 5.73206 14.5427 5.5632V5.56125ZM6.5837 13.5915C6.6325 12.5334 7.33529 11.7213 8.15227 11.7213C8.96925 11.7213 9.59395 12.5793 9.54514 13.6374C9.49634 14.6955 8.88629 15.08 8.06833 15.08C7.25037 15.08 6.5349 14.6496 6.5837 13.5915ZM15.8624 11.7213C16.6803 11.7213 17.3831 12.5334 17.4309 13.5915C17.4797 14.6496 16.7633 15.08 15.9463 15.08C15.1293 15.08 14.5183 14.6964 14.4695 13.6374C14.4207 12.5793 15.0444 11.7213 15.8624 11.7213ZM14.8902 16.0395C15.0434 16.0552 15.141 16.2143 15.0815 16.3568C14.5788 17.5583 13.3919 18.4026 12.0068 18.4026C10.6218 18.4026 9.43582 17.5583 8.93216 16.3568C8.87262 16.2143 8.97023 16.0552 9.12348 16.0395C10.0215 15.9488 10.9927 15.899 12.0068 15.899C13.021 15.899 13.9912 15.9488 14.8902 16.0395Z" fill="white"></path></svg>