<svg xmlns="http://www.w3.org/2000/svg" width="128" height="127" viewBox="0 0 128 127" fill="none"><circle cx="64" cy="63.5" r="63.5" fill="white"></circle><path d="M44.748 61.288C44.748 61.8853 44.604 62.4453 44.316 62.968C44.0387 63.4907 43.596 63.912 42.988 64.232C42.3907 64.552 41.6333 64.712 40.716 64.712H38.844V69H36.604V57.832H40.716C41.58 57.832 42.316 57.9813 42.924 58.28C43.532 58.5787 43.9853 58.9893 44.284 59.512C44.5933 60.0347 44.748 60.6267 44.748 61.288ZM40.62 62.904C41.2387 62.904 41.6973 62.7653 41.996 62.488C42.2947 62.2 42.444 61.8 42.444 61.288C42.444 60.2 41.836 59.656 40.62 59.656H38.844V62.904H40.62ZM54.5784 67.224H58.2584V69H52.3384V57.832H54.5784V67.224ZM72.5301 66.872H68.0821L67.3461 69H64.9941L69.0101 57.816H71.6181L75.6341 69H73.2661L72.5301 66.872ZM71.9221 65.08L70.3061 60.408L68.6901 65.08H71.9221ZM92.0153 57.832L88.2393 65.112V69H85.9993V65.112L82.2073 57.832H84.7353L87.1353 62.936L89.5193 57.832H92.0153Z" fill="#050A14"></path></svg>