<svg xmlns="http://www.w3.org/2000/svg" width="41" height="40" viewBox="0 0 41 40" fill="none"><path d="M39.25 22.5V10C39.25 9.33696 38.9866 8.70107 38.5178 8.23223C38.0489 7.76339 37.413 7.5 36.75 7.5H16.75C16.087 7.5 15.4511 7.76339 14.9822 8.23223C14.5134 8.70107 14.25 9.33696 14.25 10V20" stroke="#C4D9F9" stroke-linecap="round" stroke-linejoin="round"></path><path d="M14.25 20V10H9.25C7.26088 10 5.35322 10.7902 3.9467 12.1967C2.54018 13.6032 1.75 15.5109 1.75 17.5V27.5C1.75 28.163 2.01339 28.7989 2.48223 29.2678C2.95107 29.7366 3.58696 30 4.25 30H5.5" stroke="#C4D9F9" stroke-linecap="round" stroke-linejoin="round"></path><path d="M1.75 20H6.75C7.41304 20 8.04893 19.7366 8.51777 19.2678C8.98661 18.7989 9.25 18.163 9.25 17.5V10" stroke="#C4D9F9" stroke-linecap="round" stroke-linejoin="round"></path><path d="M9.25 28.75C9.25 29.7446 9.64509 30.6984 10.3483 31.4016C11.0516 32.1049 12.0054 32.5 13 32.5C13.9946 32.5 14.9484 32.1049 15.6516 31.4016C16.3549 30.6984 16.75 29.7446 16.75 28.75C16.75 27.7554 16.3549 26.8016 15.6516 26.0983C14.9484 25.3951 13.9946 25 13 25C12.0054 25 11.0516 25.3951 10.3483 26.0983C9.64509 26.8016 9.25 27.7554 9.25 28.75Z" stroke="#C4D9F9" stroke-linecap="round" stroke-linejoin="round"></path><path d="M29.25 28.75C29.25 29.7446 29.6451 30.6984 30.3483 31.4016C31.0516 32.1049 32.0054 32.5 33 32.5C33.9946 32.5 34.9484 32.1049 35.6516 31.4016C36.3549 30.6984 36.75 29.7446 36.75 28.75C36.75 27.7554 36.3549 26.8016 35.6516 26.0983C34.9484 25.3951 33.9946 25 33 25C32.0054 25 31.0516 25.3951 30.3483 26.0983C29.6451 26.8016 29.25 27.7554 29.25 28.75Z" stroke="#C4D9F9" stroke-linecap="round" stroke-linejoin="round"></path><path d="M20.5 30H25.5" stroke="#C4D9F9" stroke-linecap="round" stroke-linejoin="round"></path></svg>