<svg xmlns="http://www.w3.org/2000/svg" width="40" height="40" viewBox="0 0 40 40" fill="none"><path d="M1.27661 22.0367L6.17161 24.515" stroke="#C4D9F9" stroke-linecap="round" stroke-linejoin="round"></path><path d="M1.43335 15.39L6.12002 17.9" stroke="#C4D9F9" stroke-linecap="round" stroke-linejoin="round"></path><path d="M3.40833 9.86334L6.22332 11.5983" stroke="#C4D9F9" stroke-linecap="round" stroke-linejoin="round"></path><path d="M18.0984 8.58502L31.8484 15.61" stroke="#C4D9F9" stroke-linecap="round" stroke-linejoin="round"></path><path d="M23.4366 5.85669L13.1233 11.1267C12.5483 11.425 12.0667 11.8761 11.7315 12.4303C11.3963 12.9846 11.2204 13.6206 11.2233 14.2684V25.7334C11.2206 26.3813 11.3967 27.0174 11.7322 27.5717C12.0677 28.126 12.5497 28.577 13.125 28.875L23.4366 34.1434C23.9124 34.3873 24.4394 34.5145 24.9741 34.5145C25.5088 34.5145 26.0358 34.3873 26.5116 34.1434L36.8233 28.875C37.3984 28.5769 37.8801 28.1258 38.2153 27.5715C38.5506 27.0172 38.7264 26.3811 38.7233 25.7334V14.2684C38.7265 13.6205 38.5509 12.9844 38.2156 12.43C37.8803 11.8757 37.3985 11.4247 36.8233 11.1267L26.5116 5.85669C26.0356 5.61354 25.5087 5.48676 24.9741 5.48676C24.4396 5.48676 23.9127 5.61354 23.4366 5.85669Z" stroke="#C4D9F9" stroke-linecap="round" stroke-linejoin="round"></path><path d="M38.18 12.375L24.9733 19.1217L11.7683 12.375" stroke="#C4D9F9" stroke-linecap="round" stroke-linejoin="round"></path><path d="M24.9734 19.1216V34.515" stroke="#C4D9F9" stroke-linecap="round" stroke-linejoin="round"></path><path d="M31.8484 15.61V20.4633" stroke="#C4D9F9" stroke-linecap="round" stroke-linejoin="round"></path></svg>