<svg xmlns="http://www.w3.org/2000/svg" width="43" height="50" viewBox="0 0 43 50" fill="none"><path d="M33.7719 27.8422L37.6562 26.7938C37.8741 26.7341 38.0781 26.6321 38.2565 26.4935C38.435 26.3549 38.5843 26.1825 38.6961 25.9862C38.8078 25.7898 38.8798 25.5734 38.9078 25.3492C38.9358 25.125 38.9193 24.8975 38.8594 24.6797L34.8375 9.74377C34.7168 9.30753 34.4289 8.9365 34.0363 8.71124C33.6437 8.48599 33.1781 8.42468 32.7406 8.54065L32.0531 8.71252" stroke="#C4D9F9" stroke-linecap="round" stroke-linejoin="round"></path><path d="M9.70942 14.7281L5.34379 15.8969C5.12589 15.9566 4.9219 16.0586 4.74347 16.1972C4.56504 16.3358 4.41569 16.5082 4.30394 16.7045C4.1922 16.9008 4.12026 17.1173 4.09225 17.3415C4.06423 17.5657 4.08068 17.7932 4.14067 18.011L8.16254 32.9469C8.21485 33.1691 8.31092 33.3787 8.44513 33.5634C8.57933 33.7481 8.749 33.9042 8.94421 34.0227C9.13942 34.1411 9.35626 34.2194 9.58208 34.2531C9.80789 34.2867 10.0382 34.2751 10.2594 34.2188L26.3125 29.8875" stroke="#C4D9F9" stroke-linecap="round" stroke-linejoin="round"></path><path d="M23.4594 17.0312C23.4594 17.715 23.1877 18.3708 22.7042 18.8543C22.2207 19.3378 21.565 19.6094 20.8812 19.6094C20.1975 19.6094 19.5417 19.3378 19.0582 18.8543C18.5747 18.3708 18.3031 17.715 18.3031 17.0312V10.1562C18.3031 9.47249 18.5747 8.81673 19.0582 8.33324C19.5417 7.84975 20.1975 7.57813 20.8812 7.57812C21.565 7.57812 22.2207 7.84975 22.7042 8.33324C23.1877 8.81673 23.4594 9.47249 23.4594 10.1562V17.0312Z" stroke="#C4D9F9" stroke-linecap="round" stroke-linejoin="round"></path><path d="M18.3031 18.75C18.3031 19.4338 18.0315 20.0895 17.548 20.573C17.0645 21.0565 16.4087 21.3281 15.725 21.3281C15.0412 21.3281 14.3855 21.0565 13.902 20.573C13.4185 20.0895 13.1469 19.4338 13.1469 18.75V11.875C13.1469 11.1912 13.4185 10.5355 13.902 10.052C14.3855 9.5685 15.0412 9.29688 15.725 9.29688C16.4087 9.29688 17.0645 9.5685 17.548 10.052C18.0315 10.5355 18.3031 11.1912 18.3031 11.875V18.75Z" stroke="#C4D9F9" stroke-linecap="round" stroke-linejoin="round"></path><path d="M28.6156 15.3125C28.6156 15.9963 28.344 16.652 27.8605 17.1355C27.377 17.619 26.7212 17.8906 26.0375 17.8906C25.3537 17.8906 24.698 17.619 24.2145 17.1355C23.731 16.652 23.4594 15.9963 23.4594 15.3125V8.4375C23.4594 7.75374 23.731 7.09798 24.2145 6.61449C24.698 6.131 25.3537 5.85938 26.0375 5.85938C26.7212 5.85938 27.377 6.131 27.8605 6.61449C28.344 7.09798 28.6156 7.75374 28.6156 8.4375V15.3125Z" stroke="#C4D9F9" stroke-linecap="round" stroke-linejoin="round"></path><path d="M25.1781 33.3594C25.1747 32.2208 25.4964 31.1048 26.1053 30.1427C26.7142 29.1806 27.5851 28.4123 28.6156 27.9281" stroke="#C4D9F9" stroke-linecap="round" stroke-linejoin="round"></path><path d="M13.1469 33.3937V34.2187C13.1725 34.8965 13.3768 35.5555 13.739 36.1289C14.1011 36.7024 14.6084 37.1699 15.2094 37.4844C15.6363 37.8046 15.9828 38.2198 16.2214 38.6971C16.4601 39.1744 16.5844 39.7007 16.5844 40.2344V45.3906" stroke="#C4D9F9" stroke-linecap="round" stroke-linejoin="round"></path><path d="M28.6156 27.9281V22.1875C28.6156 21.5037 28.8872 20.848 29.3707 20.3645C29.8542 19.881 30.51 19.6094 31.1937 19.6094C31.8775 19.6094 32.5332 19.881 33.0167 20.3645C33.5002 20.848 33.7719 21.5037 33.7719 22.1875V31.6406C33.772 32.644 33.4794 33.6257 32.9298 34.4653C32.3803 35.3048 31.5978 35.9658 30.6781 36.3672C30.0659 36.6344 29.5448 37.0741 29.1785 37.6327C28.8122 38.1913 28.6166 38.8445 28.6156 39.5125V45.3906" stroke="#C4D9F9" stroke-linecap="round" stroke-linejoin="round"></path><path d="M9.46362 25.0114C9.34966 25.0114 9.24037 24.9661 9.15979 24.8856C9.07921 24.805 9.03394 24.6957 9.03394 24.5817C9.03394 24.4678 9.07921 24.3585 9.15979 24.2779C9.24037 24.1973 9.34966 24.152 9.46362 24.152" stroke="#C4D9F9"></path><path d="M9.46362 25.0114C9.57758 25.0114 9.68688 24.9661 9.76746 24.8856C9.84804 24.805 9.89331 24.6957 9.89331 24.5817C9.89331 24.4678 9.84804 24.3585 9.76746 24.2779C9.68688 24.1973 9.57758 24.152 9.46362 24.152" stroke="#C4D9F9"></path></svg>