<svg xmlns="http://www.w3.org/2000/svg" width="56" height="55" viewBox="0 0 56 55" fill="none"><rect opacity="0.1" x="0.75" width="55" height="55" rx="10" fill="white"></rect><path d="M43.9597 18.9776C43.3746 18.2472 42.5792 17.682 41.6634 17.3459C40.7476 17.0098 39.748 16.9162 38.7775 17.0757L31.1041 18.2266C30.6208 17.9512 30.1088 17.7208 29.5757 17.5389C28.7142 17.2534 27.7753 17.2332 26.9002 17.4814L24.4841 18.0022C22.9481 17.5256 21.2809 17.549 19.7613 18.0683C18.7623 18.417 17.8548 18.9563 17.0983 19.6509C13.3476 21.311 11.716 26.0988 13.432 30.6565C14.4291 33.3093 16.3951 35.4385 18.8049 36.4858C19.7907 36.9236 20.8704 37.1527 21.9649 37.1563C22.5352 37.1561 23.1029 37.0855 23.6527 36.9462C23.8309 36.9462 24.009 36.9779 24.1872 36.9779C25.4954 36.9762 26.7799 36.6559 27.9102 36.0495C29.0405 35.4431 29.9764 34.5722 30.6228 33.5251L33.6671 32.1901C34.155 31.9755 34.5542 31.6212 34.8049 31.1801C35.1091 30.6452 35.3592 30.0856 35.5519 29.5084L41.6874 26.8584C43.0331 26.2782 44.0747 25.2314 44.5849 23.9466C45.3037 22.1138 45.085 20.3903 43.9597 18.9776ZM23.8059 35.7924C23.0737 36.0337 22.2956 36.1347 21.5195 36.0892C20.7434 36.0436 19.9855 35.8526 19.2925 35.5277C17.1546 34.6012 15.4074 32.6993 14.5072 30.3054C12.9132 26.0586 14.5072 21.6218 18.0454 20.4105C18.6401 20.2054 19.27 20.1001 19.9051 20.0997C20.8252 20.1072 21.7318 20.3038 22.5588 20.6752C24.6998 21.6017 26.4439 23.5093 27.344 25.8974C28.9506 30.1414 27.3659 34.5782 23.8059 35.7924ZM26.3876 35.5392C28.9412 33.3784 29.8758 29.3818 28.4318 25.5493C27.4347 22.8878 25.4687 20.7615 23.0495 19.717C22.1414 19.318 21.1544 19.0937 20.1489 19.0581C20.8019 18.8338 21.4929 18.7178 22.1899 18.7157C23.1379 18.7167 24.0735 18.9133 24.928 19.2912C27.1909 20.2695 29.0631 22.3555 30.0664 25.0141C31.8387 29.6782 30.254 34.1926 26.4001 35.5392H26.3876ZM33.8078 30.6795C33.6702 30.9227 33.451 31.1185 33.1827 31.2377L31.3792 32.0261C32.1825 29.8969 32.1637 27.3016 31.176 24.6746C30.1883 22.0476 28.3911 19.9184 26.1938 18.7157L27.2065 18.4971L27.2815 18.4769C27.9074 18.3032 28.5776 18.3214 29.1913 18.5287C31.498 19.2883 33.414 21.1873 34.3329 23.6157C34.7758 24.7634 34.9577 25.9827 34.8674 27.1978C34.7771 28.413 34.4164 29.598 33.8078 30.6795ZM43.4971 23.5812C43.0889 24.598 42.261 25.4253 41.1936 25.883L35.8801 28.1849C36.1633 26.5319 36.0001 24.8402 35.405 23.259C34.8078 21.6556 33.7723 20.2208 32.3981 19.0927L38.9619 18.1144C39.7204 17.9878 40.5022 18.0581 41.2198 18.3172C41.9374 18.5764 42.5625 19.0142 43.0252 19.5818C43.9347 20.7356 44.0941 22.0793 43.4971 23.5812Z" fill="#C4D9F9"></path><path d="M22.9648 32.8115C22.9677 32.8823 22.9552 32.953 22.928 33.0194C22.9009 33.0857 22.8596 33.1464 22.8066 33.1979C22.7536 33.2493 22.69 33.2905 22.6195 33.3191C22.5489 33.3476 22.4729 33.3628 22.3959 33.3639C22.245 33.3647 22.0998 33.3108 21.9916 33.214C21.8834 33.1171 21.8209 32.9849 21.8177 32.846L21.7677 30.6823C21.7629 30.2703 21.6211 29.8695 21.3612 29.5341C21.1013 29.1986 20.7359 28.9446 20.3142 28.8063C19.6866 28.6013 19.1399 28.2282 18.7445 27.735C18.349 27.2417 18.1229 26.6509 18.0951 26.0384L17.9763 24.9105C17.9693 24.8411 17.9772 24.7712 17.9996 24.7047C18.022 24.6382 18.0584 24.5764 18.1067 24.5228C18.155 24.4692 18.2144 24.4249 18.2813 24.3925C18.3482 24.36 18.4214 24.34 18.4967 24.3336C18.572 24.3271 18.648 24.3344 18.7202 24.355C18.7925 24.3756 18.8596 24.4091 18.9178 24.4536C18.976 24.4981 19.0241 24.5527 19.0594 24.6143C19.0947 24.6759 19.1164 24.7433 19.1234 24.8126L19.2484 25.9635C19.2615 26.3652 19.4048 26.7541 19.6599 27.0802C19.915 27.4063 20.2702 27.6547 20.6799 27.7935C21.3217 28.0054 21.8779 28.3924 22.2745 28.9029C22.671 29.4134 22.8889 30.0231 22.8991 30.6506L22.9648 32.8115Z" fill="#C4D9F9"></path></svg>