<svg xmlns="http://www.w3.org/2000/svg" width="56" height="55" viewBox="0 0 56 55" fill="none"><rect opacity="0.1" x="0.75" width="55" height="55" rx="10" fill="white"></rect><path d="M25.0242 26.9989C25.5071 26.5714 26.0712 26.2417 26.6843 26.0288C27.2973 25.8158 27.9474 25.7237 28.5971 25.7578C29.2469 25.7918 29.8837 25.9513 30.4712 26.2272C31.0586 26.5031 31.5852 26.8899 32.0207 27.3656M22.8121 24.5858C24.4371 23.1492 26.5775 22.4065 28.7626 22.521C30.9478 22.6355 32.9989 23.5979 34.4647 25.1965" stroke="#C4D9F9" stroke-linecap="round" stroke-linejoin="round"></path><path d="M38.9321 18.0785C36.1678 15.309 31.6936 15.309 28.9293 18.0785L28.374 18.6364L27.8186 18.0785C25.0564 15.3058 20.5795 15.3074 17.8192 18.082C15.0589 20.8566 15.0605 25.3536 17.8227 28.1263L18.378 28.6841L28.374 38.725L38.3768 28.6841L38.9321 28.1263C41.6893 25.3496 41.6893 20.8552 38.9321 18.0785ZM26.0292 32.6553L28.374 29.6458L30.7187 32.6553H26.0292Z" stroke="#C4D9F9" stroke-miterlimit="10" stroke-linecap="round" stroke-linejoin="round"></path></svg>