<svg xmlns="http://www.w3.org/2000/svg" width="61" height="61" viewBox="0 0 61 61" fill="none"><circle cx="30.75" cy="30.623" r="30" fill="#585BF5"></circle><path d="M24.446 37.407C26.494 35.7004 28.126 34.2817 29.342 33.151C30.558 31.999 31.5713 30.8044 32.382 29.567C33.1927 28.3297 33.598 27.1137 33.598 25.919C33.598 24.831 33.342 23.9777 32.83 23.359C32.318 22.7404 31.5287 22.431 30.462 22.431C29.3953 22.431 28.574 22.7937 27.998 23.519C27.422 24.223 27.1233 25.1937 27.102 26.431H22.75C22.8353 23.871 23.5927 21.9297 25.022 20.607C26.4727 19.2844 28.3073 18.623 30.526 18.623C32.958 18.623 34.8247 19.2737 36.126 20.575C37.4273 21.855 38.078 23.551 38.078 25.663C38.078 27.327 37.63 28.9164 36.734 30.431C35.838 31.9457 34.814 33.2684 33.662 34.399C32.51 35.5084 31.006 36.8524 29.15 38.431H38.59V42.143H22.782V38.815L24.446 37.407Z" fill="white"></path></svg>