<svg xmlns="http://www.w3.org/2000/svg" width="61" height="61" viewBox="0 0 61 61" fill="none"><circle cx="30.75" cy="30.623" r="30" fill="#585BF5"></circle><path d="M23.07 25.311C23.1767 23.1777 23.9233 21.535 25.31 20.383C26.718 19.2097 28.5633 18.623 30.846 18.623C32.4033 18.623 33.7367 18.9004 34.846 19.455C35.9553 19.9884 36.7873 20.7244 37.342 21.663C37.918 22.5804 38.206 23.6257 38.206 24.799C38.206 26.143 37.854 27.2844 37.15 28.223C36.4673 29.1404 35.646 29.759 34.686 30.079V30.207C35.9233 30.591 36.8833 31.2737 37.566 32.255C38.27 33.2364 38.622 34.495 38.622 36.031C38.622 37.311 38.3233 38.4524 37.726 39.455C37.15 40.4577 36.286 41.247 35.134 41.823C34.0033 42.3777 32.638 42.655 31.038 42.655C28.6273 42.655 26.6647 42.047 25.15 40.831C23.6353 39.615 22.8353 37.823 22.75 35.455H27.102C27.1447 36.5004 27.4967 37.343 28.158 37.983C28.8407 38.6017 29.7687 38.911 30.942 38.911C32.03 38.911 32.862 38.6124 33.438 38.015C34.0353 37.3964 34.334 36.607 34.334 35.647C34.334 34.367 33.9287 33.4497 33.118 32.895C32.3073 32.3404 31.0487 32.063 29.342 32.063H28.414V28.383H29.342C32.3713 28.383 33.886 27.3697 33.886 25.343C33.886 24.4257 33.6087 23.711 33.054 23.199C32.5207 22.687 31.742 22.431 30.718 22.431C29.7153 22.431 28.9367 22.7084 28.382 23.263C27.8487 23.7964 27.5393 24.479 27.454 25.311H23.07Z" fill="white"></path></svg>