<svg xmlns="http://www.w3.org/2000/svg" width="56" height="55" viewBox="0 0 56 55" fill="none"><rect opacity="0.1" x="0.75" width="55" height="55" rx="10" fill="white"></rect><path d="M38.0675 29.2738L41.175 28.435C41.3493 28.3873 41.5125 28.3057 41.6553 28.1948C41.798 28.0839 41.9175 27.946 42.0069 27.7889C42.0963 27.6319 42.1538 27.4587 42.1762 27.2794C42.1987 27.1 42.1855 26.918 42.1375 26.7438L38.92 14.795C38.8235 14.446 38.5931 14.1492 38.2791 13.969C37.965 13.7888 37.5925 13.7397 37.2425 13.8325L36.6925 13.97" stroke="#C4D9F9" stroke-linecap="round" stroke-linejoin="round"></path><path d="M18.8175 18.7825L15.325 19.7175C15.1507 19.7652 14.9875 19.8468 14.8448 19.9577C14.702 20.0686 14.5825 20.2065 14.4931 20.3636C14.4037 20.5206 14.3462 20.6938 14.3238 20.8731C14.3014 21.0525 14.3145 21.2345 14.3625 21.4087L17.58 33.3575C17.6219 33.5353 17.6987 33.7029 17.8061 33.8507C17.9135 33.9985 18.0492 34.1233 18.2054 34.2181C18.3615 34.3128 18.535 34.3755 18.7156 34.4024C18.8963 34.4293 19.0805 34.42 19.2575 34.375L32.1 30.91" stroke="#C4D9F9" stroke-linecap="round" stroke-linejoin="round"></path><path d="M29.8175 20.625C29.8175 21.172 29.6002 21.6966 29.2134 22.0834C28.8266 22.4702 28.302 22.6875 27.755 22.6875C27.208 22.6875 26.6834 22.4702 26.2966 22.0834C25.9098 21.6966 25.6925 21.172 25.6925 20.625V15.125C25.6925 14.578 25.9098 14.0534 26.2966 13.6666C26.6834 13.2798 27.208 13.0625 27.755 13.0625C28.302 13.0625 28.8266 13.2798 29.2134 13.6666C29.6002 14.0534 29.8175 14.578 29.8175 15.125V20.625Z" stroke="#C4D9F9" stroke-linecap="round" stroke-linejoin="round"></path><path d="M25.6925 22C25.6925 22.547 25.4752 23.0716 25.0884 23.4584C24.7016 23.8452 24.177 24.0625 23.63 24.0625C23.083 24.0625 22.5584 23.8452 22.1716 23.4584C21.7848 23.0716 21.5675 22.547 21.5675 22V16.5C21.5675 15.953 21.7848 15.4284 22.1716 15.0416C22.5584 14.6548 23.083 14.4375 23.63 14.4375C24.177 14.4375 24.7016 14.6548 25.0884 15.0416C25.4752 15.4284 25.6925 15.953 25.6925 16.5V22Z" stroke="#C4D9F9" stroke-linecap="round" stroke-linejoin="round"></path><path d="M33.9425 19.25C33.9425 19.797 33.7252 20.3216 33.3384 20.7084C32.9516 21.0952 32.427 21.3125 31.88 21.3125C31.333 21.3125 30.8084 21.0952 30.4216 20.7084C30.0348 20.3216 29.8175 19.797 29.8175 19.25V13.75C29.8175 13.203 30.0348 12.6784 30.4216 12.2916C30.8084 11.9048 31.333 11.6875 31.88 11.6875C32.427 11.6875 32.9516 11.9048 33.3384 12.2916C33.7252 12.6784 33.9425 13.203 33.9425 13.75V19.25Z" stroke="#C4D9F9" stroke-linecap="round" stroke-linejoin="round"></path><path d="M31.1925 33.6875C31.1898 32.7766 31.4471 31.8839 31.9343 31.1142C32.4214 30.3446 33.1181 29.7299 33.9425 29.3425" stroke="#C4D9F9" stroke-linecap="round" stroke-linejoin="round"></path><path d="M21.5675 33.7151V34.3751C21.588 34.9173 21.7514 35.4445 22.0412 35.9032C22.3309 36.362 22.7367 36.7361 23.2175 36.9876C23.559 37.2437 23.8363 37.5759 24.0272 37.9578C24.2181 38.3396 24.3175 38.7607 24.3175 39.1876V43.3126" stroke="#C4D9F9" stroke-linecap="round" stroke-linejoin="round"></path><path d="M33.9425 29.3425V24.75C33.9425 24.203 34.1598 23.6784 34.5466 23.2916C34.9334 22.9048 35.458 22.6875 36.005 22.6875C36.552 22.6875 37.0766 22.9048 37.4634 23.2916C37.8502 23.6784 38.0675 24.203 38.0675 24.75V32.3125C38.0676 33.1152 37.8335 33.9006 37.3939 34.5722C36.9543 35.2439 36.3282 35.7727 35.5925 36.0938C35.1027 36.3075 34.6859 36.6593 34.3928 37.1062C34.0998 37.5531 33.9433 38.0756 33.9425 38.61V43.3125" stroke="#C4D9F9" stroke-linecap="round" stroke-linejoin="round"></path><path d="M18.6208 27.009C18.5297 27.009 18.4422 26.9728 18.3778 26.9084C18.3133 26.8439 18.2771 26.7565 18.2771 26.6653C18.2771 26.5741 18.3133 26.4867 18.3778 26.4222C18.4422 26.3578 18.5297 26.3215 18.6208 26.3215" stroke="#C4D9F9"></path><path d="M18.6208 27.009C18.712 27.009 18.7995 26.9728 18.8639 26.9084C18.9284 26.8439 18.9646 26.7565 18.9646 26.6653C18.9646 26.5741 18.9284 26.4867 18.8639 26.4222C18.7995 26.3578 18.712 26.3215 18.6208 26.3215" stroke="#C4D9F9"></path></svg>