<svg xmlns="http://www.w3.org/2000/svg" width="56" height="55" viewBox="0 0 56 55" fill="none"><rect opacity="0.1" x="0.75" width="55" height="55" rx="10" fill="white"></rect><path d="M36.3796 20.7393C36.2438 20.2021 35.9672 19.7099 35.5777 19.3124C35.1882 18.9149 34.6997 18.6262 34.1614 18.4754C32.1947 18 24.3281 18 24.3281 18C24.3281 18 16.4615 18 14.4948 18.5207C13.9566 18.6715 13.468 18.9602 13.0785 19.3577C12.6891 19.7552 12.4124 20.2474 12.2766 20.7846C11.9167 22.7605 11.7406 24.7649 11.7507 26.7726C11.7378 28.7955 11.9139 30.8152 12.2766 32.8059C12.4264 33.3265 12.7092 33.7999 13.0977 34.1807C13.4863 34.5614 13.9675 34.8364 14.4948 34.9793C16.4615 35.5 24.3281 35.5 24.3281 35.5C24.3281 35.5 32.1947 35.5 34.1614 34.9793C34.6997 34.8285 35.1882 34.5398 35.5777 34.1423C35.9672 33.7448 36.2438 33.2526 36.3796 32.7154C36.7367 30.7544 36.9128 28.7652 36.9056 26.7726C36.9184 24.7498 36.7423 22.7301 36.3796 20.7393Z" stroke="#C4D9F9" stroke-linecap="round" stroke-linejoin="round"></path><path d="M21.5938 30.5784L28.1562 27.0237L21.5938 23.469V30.5784Z" stroke="#C4D9F9" stroke-linecap="round" stroke-linejoin="round"></path><path d="M40.1875 22.3776C40.8233 23.0241 41.3277 23.7919 41.6719 24.637C42.016 25.4822 42.1931 26.388 42.1931 27.3029C42.1931 28.2178 42.016 29.1237 41.6719 29.9688C41.3277 30.8139 40.8233 31.5817 40.1875 32.2283M43.413 19.094C45.5497 21.2698 46.75 24.2205 46.75 27.2971C46.75 30.3737 45.5497 33.3244 43.413 35.5002" stroke="#C4D9F9" stroke-linecap="round" stroke-linejoin="round"></path></svg>