<svg xmlns="http://www.w3.org/2000/svg" width="24" height="24" viewBox="0 0 24 24" fill="none"><path d="M23.25 13.5V6C23.25 5.60218 23.092 5.22064 22.8107 4.93934C22.5294 4.65804 22.1478 4.5 21.75 4.5H9.75C9.35218 4.5 8.97064 4.65804 8.68934 4.93934C8.40804 5.22064 8.25 5.60218 8.25 6V12" stroke="white" stroke-opacity="0.7" stroke-linecap="round" stroke-linejoin="round"></path><path d="M8.25 12V6H5.25C4.05653 6 2.91193 6.47411 2.06802 7.31802C1.22411 8.16193 0.75 9.30653 0.75 10.5V16.5C0.75 16.8978 0.908035 17.2794 1.18934 17.5607C1.47064 17.842 1.85218 18 2.25 18H3" stroke="white" stroke-opacity="0.7" stroke-linecap="round" stroke-linejoin="round"></path><path d="M0.75 12H3.75C4.14782 12 4.52936 11.842 4.81066 11.5607C5.09196 11.2794 5.25 10.8978 5.25 10.5V6" stroke="white" stroke-opacity="0.7" stroke-linecap="round" stroke-linejoin="round"></path><path d="M5.25 17.25C5.25 17.8467 5.48705 18.419 5.90901 18.841C6.33097 19.2629 6.90326 19.5 7.5 19.5C8.09674 19.5 8.66903 19.2629 9.09099 18.841C9.51295 18.419 9.75 17.8467 9.75 17.25C9.75 16.6533 9.51295 16.081 9.09099 15.659C8.66903 15.2371 8.09674 15 7.5 15C6.90326 15 6.33097 15.2371 5.90901 15.659C5.48705 16.081 5.25 16.6533 5.25 17.25Z" stroke="white" stroke-opacity="0.7" stroke-linecap="round" stroke-linejoin="round"></path><path d="M17.25 17.25C17.25 17.8467 17.4871 18.419 17.909 18.841C18.331 19.2629 18.9033 19.5 19.5 19.5C20.0967 19.5 20.669 19.2629 21.091 18.841C21.5129 18.419 21.75 17.8467 21.75 17.25C21.75 16.6533 21.5129 16.081 21.091 15.659C20.669 15.2371 20.0967 15 19.5 15C18.9033 15 18.331 15.2371 17.909 15.659C17.4871 16.081 17.25 16.6533 17.25 17.25Z" stroke="white" stroke-opacity="0.7" stroke-linecap="round" stroke-linejoin="round"></path><path d="M12 18H15" stroke="white" stroke-opacity="0.7" stroke-linecap="round" stroke-linejoin="round"></path></svg>