<svg xmlns="http://www.w3.org/2000/svg" width="20" height="24" viewBox="0 0 20 24" fill="none"><g clip-path="url(#clip0_19_3250)"><path d="M15.7903 13.3641L17.6548 12.8608C17.7594 12.8322 17.8573 12.7832 17.943 12.7167C18.0286 12.6502 18.1003 12.5674 18.154 12.4732C18.2076 12.3789 18.2421 12.275 18.2556 12.1674C18.269 12.0598 18.2611 11.9506 18.2323 11.8461L16.3018 4.67681C16.2439 4.46742 16.1057 4.28933 15.9173 4.1812C15.7288 4.07308 15.5053 4.04365 15.2953 4.09931L14.9653 4.18181" stroke="white" stroke-opacity="0.7" stroke-linecap="round" stroke-linejoin="round"></path><path d="M4.2407 7.06934L2.1452 7.63034C2.04061 7.65898 1.94269 7.70796 1.85704 7.77447C1.7714 7.84099 1.69971 7.92374 1.64607 8.01798C1.59243 8.11223 1.5579 8.21613 1.54445 8.32373C1.53101 8.43134 1.5389 8.54054 1.5677 8.64509L3.4982 15.8143C3.5233 15.921 3.56942 16.0216 3.63384 16.1103C3.69826 16.1989 3.77969 16.2739 3.87339 16.3307C3.9671 16.3875 4.07118 16.4251 4.17957 16.4413C4.28796 16.4575 4.39849 16.4519 4.5047 16.4248L12.2102 14.3458" stroke="white" stroke-opacity="0.7" stroke-linecap="round" stroke-linejoin="round"></path><path d="M10.8407 8.17471C10.8407 8.50291 10.7103 8.81768 10.4783 9.04975C10.2462 9.28183 9.93143 9.41221 9.60322 9.41221C9.27502 9.41221 8.96025 9.28183 8.72818 9.04975C8.4961 8.81768 8.36572 8.50291 8.36572 8.17471V4.87471C8.36572 4.5465 8.4961 4.23174 8.72818 3.99966C8.96025 3.76759 9.27502 3.63721 9.60322 3.63721C9.93143 3.63721 10.2462 3.76759 10.4783 3.99966C10.7103 4.23174 10.8407 4.5465 10.8407 4.87471V8.17471Z" stroke="white" stroke-opacity="0.7" stroke-linecap="round" stroke-linejoin="round"></path><path d="M8.36563 8.9999C8.36563 9.32811 8.23525 9.64287 8.00317 9.87495C7.77109 10.107 7.45633 10.2374 7.12813 10.2374C6.79992 10.2374 6.48516 10.107 6.25308 9.87495C6.021 9.64287 5.89062 9.32811 5.89062 8.9999V5.6999C5.89062 5.3717 6.021 5.05693 6.25308 4.82486C6.48516 4.59278 6.79992 4.4624 7.12813 4.4624C7.45633 4.4624 7.77109 4.59278 8.00317 4.82486C8.23525 5.05693 8.36563 5.3717 8.36563 5.6999V8.9999Z" stroke="white" stroke-opacity="0.7" stroke-linecap="round" stroke-linejoin="round"></path><path d="M13.3153 7.35C13.3153 7.6782 13.185 7.99297 12.9529 8.22504C12.7208 8.45712 12.406 8.5875 12.0778 8.5875C11.7496 8.5875 11.4349 8.45712 11.2028 8.22504C10.9707 7.99297 10.8403 7.6782 10.8403 7.35V4.05C10.8403 3.72179 10.9707 3.40703 11.2028 3.17496C11.4349 2.94288 11.7496 2.8125 12.0778 2.8125C12.406 2.8125 12.7208 2.94288 12.9529 3.17496C13.185 3.40703 13.3153 3.72179 13.3153 4.05V7.35Z" stroke="white" stroke-opacity="0.7" stroke-linecap="round" stroke-linejoin="round"></path><path d="M11.6655 16.0123C11.6639 15.4657 11.8183 14.9301 12.1106 14.4683C12.4029 14.0065 12.8209 13.6377 13.3155 13.4053" stroke="white" stroke-opacity="0.7" stroke-linecap="round" stroke-linejoin="round"></path><path d="M5.89062 16.0288V16.4248C5.90295 16.7501 6.00099 17.0664 6.17484 17.3417C6.34868 17.6169 6.59216 17.8414 6.88063 17.9923C7.08555 18.146 7.25187 18.3453 7.36643 18.5744C7.48099 18.8035 7.54063 19.0562 7.54063 19.3123V21.7873" stroke="white" stroke-opacity="0.7" stroke-linecap="round" stroke-linejoin="round"></path><path d="M13.3154 13.4056V10.6501C13.3154 10.3219 13.4458 10.0071 13.6779 9.77505C13.91 9.54298 14.2247 9.4126 14.5529 9.4126C14.8811 9.4126 15.1959 9.54298 15.428 9.77505C15.6601 10.0071 15.7904 10.3219 15.7904 10.6501V15.1876C15.7905 15.6692 15.65 16.1404 15.3863 16.5434C15.1225 16.9464 14.7469 17.2637 14.3054 17.4563C14.0116 17.5846 13.7614 17.7957 13.5856 18.0638C13.4098 18.3319 13.3159 18.6455 13.3154 18.9661V21.7876" stroke="white" stroke-opacity="0.7" stroke-linecap="round" stroke-linejoin="round"></path><path d="M4.12275 12.0053C4.06805 12.0053 4.01559 11.9835 3.97691 11.9449C3.93823 11.9062 3.9165 11.8537 3.9165 11.799C3.9165 11.7443 3.93823 11.6919 3.97691 11.6532C4.01559 11.6145 4.06805 11.5928 4.12275 11.5928" stroke="white" stroke-opacity="0.7"></path><path d="M4.12256 12.0053C4.17726 12.0053 4.22972 11.9835 4.2684 11.9449C4.30708 11.9062 4.32881 11.8537 4.32881 11.799C4.32881 11.7443 4.30708 11.6919 4.2684 11.6532C4.22972 11.6145 4.17726 11.5928 4.12256 11.5928" stroke="white" stroke-opacity="0.7"></path></g><defs><clipPath id="clip0_19_3250"><rect width="19.8" height="19.8" fill="white" transform="translate(0 2.3999)"></rect></clipPath></defs></svg>